<?xml version="1.0" encoding="UTF-8" standalone="no"?>
<svg xmlns="http://www.w3.org/2000/svg" version="1.1"
 width="1254" height="1254" viewBox="0 0 1254 1254"
 preserveAspectRatio="xMidYMid meet">

<defs>
  <linearGradient id="gold" x1="12%" y1="0%" x2="88%" y2="100%">
    <stop offset="0%" stop-color="#fff6c8"/>
    <stop offset="26%" stop-color="#e6ae34"/>
    <stop offset="52%" stop-color="#ffe28e"/>
    <stop offset="74%" stop-color="#c8891c"/>
    <stop offset="100%" stop-color="#f4c85e"/>
  </linearGradient>
  <linearGradient id="royal" gradientUnits="userSpaceOnUse" x1="7001" y1="6280" x2="9280" y2="3900">
    <stop offset="0%" stop-color="#f6d98f"/>
    <stop offset="26%" stop-color="#e6b84e"/>
    <stop offset="52%" stop-color="#c68f2b"/>
    <stop offset="74%" stop-color="#dcac47"/>
    <stop offset="100%" stop-color="#8a5c1a"/>
  </linearGradient>
  <clipPath id="leg"><rect x="0" y="626" width="1254" height="628"/></clipPath>
</defs>

<g transform="translate(0.000000,1254.000000) scale(0.100000,-0.100000)"
fill="url(#gold)" stroke="none">
<path d="M6434 11566 c80 -118 146 -218 146 -223 0 -13 -296 -435 -305 -435 -9 1 -305 422 -305 435 0 8 65 105 238 355 35 51 67 90 72 87 4 -3 74 -101 154 -219z m-661 -223 c-3 -21 -7 -39 -8 -41 -1 -1 -80 -14 -175 -28 -307 -44 -539 -99 -836 -199 -889 -297 -1652 -844 -2250 -1611 -217 -279 -438 -646 -589 -979 -187 -411 -327 -920 -377 -1364 l-12 -111 -38 0 c-46 0 -45 -8 -18 202 102 790 424 1572 930 2254 257 346 632 720 995 994 606 455 1352 768 2112 885 292 45 273 45 266 -2z m1219 17 c680 -87 1362 -344 1942 -733 488 -326 928 -750 1258 -1212 517 -724 817 -1501 903 -2342 l6 -63 -39 0 -39 0 -12 112 c-108 996 -589 2005 -1311 2752 -635 656 -1390 1100 -2229 1310 -175 44 -480 99 -618 111 -68 7 -73 9 -73 30 0 13 -3 30 -6 39 -8 22 27 21 218 -4z m-1084 -281 c2 -12 -22 -17 -111 -27 -1038 -110 -2060 -618 -2773 -1378 -471 -501 -802 -1052 -1022 -1699 -111 -326 -189 -692 -217 -1018 -5 -52 -11 -77 -18 -74 -19 6 -19 58 -2 210 31 281 125 679 223 952 105 292 249 598 394 840 409 682 968 1233 1648 1625 495 285 1077 484 1635 559 240 33 238 33 243 10z m977 -5 c583 -71 1229 -302 1753 -626 466 -289 932 -713 1254 -1143 508 -679 817 -1455 902 -2275 13 -119 10 -150 -14 -150 -4 0 -10 39 -14 88 -18 220 -80 557 -146 789 -258 911 -754 1677 -1481 2285 -351 293 -768 545 -1180 711 -395 160 -868 276 -1232 303 -53 4 -97 10 -97 13 0 4 5 12 12 19 12 12 32 11 243 -14z m-1175 -1039 c193 -31 371 -87 600 -188 219 -97 278 -105 387 -51 62 30 103 74 143 154 25 49 35 60 55 60 34 0 33 -3 -19 -281 -49 -258 -99 -570 -116 -724 -19 -171 -18 -167 -47 -163 -24 3 -28 10 -50 98 -77 305 -279 583 -558 765 -106 70 -181 106 -301 148 -175 61 -246 72 -459 71 -172 0 -199 -3 -287 -27 -322 -86 -551 -291 -646 -580 -39 -117 -52 -197 -52 -323 0 -329 125 -590 438 -915 176 -183 361 -340 1069 -908 l83 -66 1 -155 c3 -405 4 -680 1 -680 -2 0 -44 33 -95 73 -51 40 -256 201 -457 357 -664 516 -857 677 -1052 879 -263 270 -415 540 -475 838 -24 121 -23 357 1 473 133 625 666 1081 1357 1159 109 13 358 5 479 -14z m1295 -1725 c10 -16 -14 -40 -39 -40 -40 0 -140 -30 -203 -61 -84 -41 -146 -111 -174 -197 -20 -63 -22 -95 -29 -492 -4 -234 -11 -1050 -15 -1815 -7 -1448 -7 -1444 -49 -1562 -154 -433 -613 -731 -1091 -710 -139 7 -235 30 -340 85 -80 42 -191 145 -224 209 -103 203 -48 458 141 658 274 290 672 378 987 218 40 -21 91 -53 112 -71 l39 -34 0 1519 c0 905 -4 1563 -10 1628 -31 352 -172 550 -437 611 -96 22 -93 21 -93 44 0 20 3 20 709 20 482 0 712 -3 716 -10z m2140 -14 c0 -14 -14 -22 -65 -36 -131 -34 -296 -113 -415 -198 -205 -147 -346 -286 -1423 -1403 l-93 -97 201 -238 c111 -132 241 -286 290 -344 140 -167 522 -628 815 -986 599 -730 705 -839 914 -944 47 -23 126 -52 175 -65 89 -22 91 -24 94 -54 l3 -31 -660 0 c-364 0 -661 4 -661 8 0 5 12 19 26 33 87 80 63 184 -84 369 -162 202 -1013 1238 -1399 1702 l-222 267 262 283 c144 156 394 424 557 597 518 552 600 648 656 765 67 140 35 251 -91 314 -23 11 -57 23 -77 27 -35 7 -54 27 -42 46 3 5 256 8 622 7 596 -3 617 -4 617 -22z m-7475 -1597 c99 -71 192 -140 206 -152 l25 -22 -196 -143 c-108 -79 -202 -145 -209 -148 -11 -4 -94 53 -345 236 l-74 54 29 23 c16 13 72 55 124 92 52 38 131 96 175 130 44 33 81 61 83 61 1 0 83 -59 182 -131z m9598 -24 c201 -149 202 -150 180 -167 -13 -10 -105 -77 -206 -149 l-182 -131 -38 24 c-61 42 -367 270 -367 275 0 8 399 303 406 300 3 -1 96 -69 207 -152z m-9484 -587 c36 -582 201 -1209 454 -1723 104 -210 170 -324 307 -530 445 -666 1031 -1181 1770 -1555 494 -250 927 -386 1427 -447 122 -15 145 -20 135 -32 -14 -17 -102 -10 -307 25 -465 79 -806 192 -1255 416 -1296 647 -2186 1794 -2474 3190 -63 304 -111 719 -88 756 18 28 24 7 31 -100z m9014 104 c16 -10 2 -189 -34 -441 -126 -888 -479 -1678 -1049 -2351 -718 -848 -1669 -1397 -2732 -1576 -169 -28 -313 -36 -320 -18 -2 7 24 13 72 17 215 19 533 82 782 158 713 215 1344 593 1883 1129 678 673 1096 1449 1284 2380 44 216 86 536 86 653 0 57 4 64 28 49z m-5850 -67 c326 -84 549 -251 717 -534 4 -8 -36 31 -91 86 -173 176 -378 286 -624 334 -98 19 -338 17 -438 -4 -251 -53 -469 -173 -657 -362 -297 -296 -449 -717 -414 -1144 18 -226 63 -388 164 -596 187 -385 504 -695 925 -905 268 -134 503 -200 783 -219 547 -39 1095 154 1462 515 305 300 475 692 475 1095 0 370 -118 630 -453 992 l-87 95 2 220 3 220 145 -175 c80 -97 171 -208 203 -246 217 -262 338 -541 378 -870 17 -142 6 -424 -21 -552 -122 -571 -499 -999 -1125 -1275 -404 -178 -803 -233 -1255 -174 -793 104 -1500 603 -1788 1259 -115 263 -159 490 -149 772 8 252 57 431 178 664 190 362 556 656 969 778 175 51 246 61 430 57 139 -3 181 -8 268 -31z m-3424 -127 c48 -447 103 -730 207 -1069 316 -1027 1003 -1949 1900 -2550 425 -284 893 -511 1331 -643 199 -60 457 -113 716 -147 86 -11 92 -13 92 -35 0 -12 3 -30 6 -39 6 -15 0 -16 -52 -10 -600 68 -1012 192 -1555 465 -242 121 -313 162 -544 316 -425 283 -755 579 -1080 971 -508 612 -860 1354 -1014 2138 -38 189 -69 417 -78 551 l-6 104 36 0 36 0 5 -52z m9572 -35 c-46 -592 -224 -1241 -486 -1762 -369 -737 -906 -1367 -1575 -1847 -488 -350 -1128 -637 -1714 -769 -145 -32 -537 -93 -544 -84 -2 2 -2 20 0 40 l5 36 156 22 c1529 215 2903 1225 3606 2651 96 194 194 430 244 590 117 370 201 765 224 1063 l12 147 40 0 39 0 -7 -87z m-4661 -4177 c80 -115 144 -214 143 -220 -2 -6 -70 -106 -152 -223 -147 -209 -149 -211 -166 -190 -54 68 -290 409 -290 418 0 18 304 439 311 431 4 -4 73 -101 154 -216z"/>
</g>
<g clip-path="url(#leg)">
<g transform="translate(0.000000,1254.000000) scale(0.100000,-0.100000)"
fill="url(#royal)" stroke="none">
<path d="M9145 8296 c0 -14 -14 -22 -65 -36 -131 -34 -296 -113 -415 -198 -205 -147 -346 -286 -1423 -1403 l-93 -97 201 -238 c111 -132 241 -286 290 -344 140 -167 522 -628 815 -986 599 -730 705 -839 914 -944 47 -23 126 -52 175 -65 89 -22 91 -24 94 -54 l3 -31 -660 0 c-364 0 -661 4 -661 8 0 5 12 19 26 33 87 80 63 184 -84 369 -162 202 -1013 1238 -1399 1702 l-222 267 262 283 c144 156 394 424 557 597 518 552 600 648 656 765 67 140 35 251 -91 314 -23 11 -57 23 -77 27 -35 7 -54 27 -42 46 3 5 256 8 622 7 596 -3 617 -4 617 -22z "/>
</g>
</g>
</svg>
